name D:\school\WTK\thesis\model\3dpredictsim\Results\MidTarsalJoint\Fal_s1_bCst_PF_Ker1987_ls137_MT_nl_Ker1987_d01_Tmtp_ig24.mot
datacolumns 128
datarows 4
range 1.80188721 1.83792496
endheader
time	pelvis_tilt	pelvis_list	pelvis_rotation	pelvis_tx	pelvis_ty	pelvis_tz	hip_flexion_l	hip_adduction_l	hip_rotation_l	hip_flexion_r	hip_adduction_r	hip_rotation_r	knee_angle_l	knee_angle_r	ankle_angle_l	ankle_angle_r	subtalar_angle_l	subtalar_angle_r	tmt_angle_l	tmt_angle_r	mtp_angle_l	mtp_angle_r	lumbar_extension	lumbar_bending	lumbar_rotation	arm_flex_l	arm_add_l	arm_rot_l	arm_flex_r	arm_add_r	arm_rot_r	elbow_flex_l	elbow_flex_r	pro_sup_l	pro_sup_r	glut_med1_l/activation	glut_med2_l/activation	glut_med3_l/activation	glut_min1_l/activation	glut_min2_l/activation	glut_min3_l/activation	semimem_l/activation	semiten_l/activation	bifemlh_l/activation	bifemsh_l/activation	sar_l/activation	add_long_l/activation	add_brev_l/activation	add_mag1_l/activation	add_mag2_l/activation	add_mag3_l/activation	tfl_l/activation	pect_l/activation	grac_l/activation	glut_max1_l/activation	glut_max2_l/activation	glut_max3_l/activation	iliacus_l/activation	psoas_l/activation	quad_fem_l/activation	gem_l/activation	peri_l/activation	rect_fem_l/activation	vas_med_l/activation	vas_int_l/activation	vas_lat_l/activation	med_gas_l/activation	lat_gas_l/activation	soleus_l/activation	tib_post_l/activation	flex_dig_l/activation	flex_hal_l/activation	tib_ant_l/activation	per_brev_l/activation	per_long_l/activation	per_tert_l/activation	ext_dig_l/activation	ext_hal_l/activation	ercspn_l/activation	intobl_l/activation	extobl_l/activation	glut_med1_r/activation	glut_med2_r/activation	glut_med3_r/activation	glut_min1_r/activation	glut_min2_r/activation	glut_min3_r/activation	semimem_r/activation	semiten_r/activation	bifemlh_r/activation	bifemsh_r/activation	sar_r/activation	add_long_r/activation	add_brev_r/activation	add_mag1_r/activation	add_mag2_r/activation	add_mag3_r/activation	tfl_r/activation	pect_r/activation	grac_r/activation	glut_max1_r/activation	glut_max2_r/activation	glut_max3_r/activation	iliacus_r/activation	psoas_r/activation	quad_fem_r/activation	gem_r/activation	peri_r/activation	rect_fem_r/activation	vas_med_r/activation	vas_int_r/activation	vas_lat_r/activation	med_gas_r/activation	lat_gas_r/activation	soleus_r/activation	tib_post_r/activation	flex_dig_r/activation	flex_hal_r/activation	tib_ant_r/activation	per_brev_r/activation	per_long_r/activation	per_tert_r/activation	ext_dig_r/activation	ext_hal_r/activation	ercspn_r/activation	intobl_r/activation	extobl_r/activation	
          1.80188721	         -2.93017648	          2.65061608	         -6.64777359	          2.25235902	          0.91198996	          0.00307681	         29.88980729	          3.65381058	         -2.81228217	        -16.21861748	         -1.67588892	          7.17279342	         -9.77576494	        -11.13897459	          5.26524219	         -9.21141690	         -7.34887561	          6.88078889	          0.24773641	         15.54548843	         -0.97331587	         13.78283936	         -1.50936954	         -0.71617873	          2.57990769	         -5.63130440	        -13.53044763	         12.50235796	          5.70378698	        -13.46824189	         18.56567165	         12.57688058	         36.27123787	         86.51662706	         86.51662706	          0.05000001	          0.05000003	          0.07106417	          0.05000004	          0.05000005	          0.05000006	          0.18163098	          0.06352554	          0.10880292	          0.05000054	          0.07202428	          0.11069501	          0.23531129	          0.26666747	          0.16586368	          0.08769472	          0.05000017	          0.07202651	          0.12196079	          0.05000034	          0.10484029	          0.13962923	          0.05000046	          0.06969262	          0.54915116	          0.21531387	          0.11704701	          0.06443452	          0.06019352	          0.06542466	          0.06002970	          0.06522691	          0.07001960	          0.05616832	          0.06001030	          0.05000347	          0.05999604	          0.45224383	          0.25997181	          0.21829645	          0.17391817	          0.41435021	          0.19836201	          0.05000000	          0.11298343	          0.09243524	          0.23018795	          0.08644777	          0.05991250	          0.23674132	          0.16919676	          0.10171905	          0.05000209	          0.05000050	          0.05000048	          0.05000019	          0.09919763	          0.10424877	          0.05001065	          0.06001063	          0.05005816	          0.06000774	          0.25429873	          0.05015497	          0.05001632	          0.05000679	          0.05000465	          0.05000717	          0.38050431	          0.60995737	          0.05769015	          0.05001380	          0.05000053	          0.25650000	          0.14406894	          0.10071337	          0.16139543	          0.23793411	          0.33223055	          0.36656096	          0.27451951	          0.23302534	          0.29878382	          0.05000002	          0.05000007	          0.05954519	          0.05000008	          0.05000002	          0.05000014	          0.05039515	          0.06878376	          0.06498892	
          1.81389980	         -2.92712829	          2.74520635	         -6.93212450	          2.27110924	          0.91088638	          0.00284501	         29.16013007	          3.93966778	         -2.53989568	        -16.19167256	         -2.03329499	          6.94014748	        -10.53346795	        -12.98407615	          4.81903130	         -9.73410830	         -7.73313847	          8.05043647	         -0.50513147	         14.10581190	         -0.99198903	         16.05698692	         -1.26001532	         -0.91713135	          2.65064181	         -6.80457604	        -13.53191846	         12.42850254	          5.26587903	        -13.48386676	         18.70932356	         12.37225611	         37.76088791	         86.51662706	         86.51662706	          0.24045783	          0.23856767	          0.25913086	          0.30777260	          0.23832855	          0.23050914	          0.15133274	          0.07565151	          0.09065350	          0.08296360	          0.06001006	          0.09222977	          0.19605853	          0.22218415	          0.13819576	          0.11151589	          0.05000047	          0.06001208	          0.10161673	          0.11811281	          0.12321149	          0.11633749	          0.06001025	          0.05806733	          0.45754605	          0.17939696	          0.20809164	          0.05368607	          0.05015254	          0.05451107	          0.05001604	          0.05434631	          0.05833954	          0.05000016	          0.05000006	          0.05000032	          0.05000029	          0.49603621	          0.33701722	          0.18188210	          0.32258246	          0.50264992	          0.20644104	          0.05502706	          0.14231797	          0.07701592	          0.31809427	          0.07202726	          0.05000052	          0.31230698	          0.14097279	          0.08475115	          0.05000131	          0.05000017	          0.05000015	          0.05000020	          0.08266099	          0.08685889	          0.05000052	          0.05000062	          0.05000088	          0.05000057	          0.24995179	          0.05000421	          0.05000072	          0.05000327	          0.05000171	          0.05000086	          0.32408021	          0.58416508	          0.05000030	          0.05000115	          0.05000056	          0.24403368	          0.13862757	          0.08391447	          0.13448008	          0.19824379	          0.27681044	          0.30541411	          0.22872633	          0.19415394	          0.24894309	          0.05000002	          0.05812892	          0.11056820	          0.05000018	          0.05000018	          0.05000016	          0.05344121	          0.05730979	          0.05414799	
          1.82591238	         -2.92209786	          2.82632053	         -7.16973087	          2.28996150	          0.90991162	          0.00258466	         28.41850599	          4.18513647	         -2.27835414	        -16.10505544	         -2.37812348	          6.72402773	        -11.22361079	        -14.87478956	          4.04747965	        -10.33789154	         -8.10037640	          9.18052110	         -1.29290537	         12.32920363	         -1.04314847	         18.53288257	         -1.01766787	         -1.11569433	          2.71134647	         -7.95623856	        -13.53052273	         12.38630107	          4.77494229	        -13.50414947	         18.79576184	         12.21250073	         39.20183364	         86.51662706	         86.51662706	          0.32365904	          0.35262938	          0.37954418	          0.25643259	          0.21770163	          0.23938148	          0.12608861	          0.06593072	          0.07553149	          0.06912433	          0.05000051	          0.07684474	          0.16335360	          0.18512123	          0.11514337	          0.14568223	          0.05000037	          0.05000167	          0.08466601	          0.23104496	          0.19078633	          0.15619440	          0.05000004	          0.05000004	          0.38122181	          0.14947143	          0.17337979	          0.05000005	          0.06431952	          0.08373324	          0.06408603	          0.05000002	          0.05000006	          0.05000000	          0.05000011	          0.05000017	          0.05000020	          0.57392303	          0.36309442	          0.19798750	          0.51520727	          0.54187111	          0.29607691	          0.07870827	          0.11857761	          0.06416872	          0.29049907	          0.06001226	          0.05000012	          0.29214237	          0.11745689	          0.07061369	          0.05000167	          0.05000016	          0.05000013	          0.05000020	          0.06887473	          0.10974220	          0.05000047	          0.05000050	          0.05000110	          0.05000044	          0.20825720	          0.05002682	          0.05000079	          0.05000197	          0.05000113	          0.05000064	          0.27001988	          0.55740403	          0.05000016	          0.05000072	          0.05000023	          0.20332591	          0.11550372	          0.15473609	          0.14593054	          0.16517430	          0.23063507	          0.25446729	          0.19057199	          0.16176674	          0.20741638	          0.06966360	          0.06666038	          0.10924531	          0.05000023	          0.11800755	          0.05000080	          0.07039610	          0.05000000	          0.05000002	
          1.83792496	         -2.91535517	          2.89328710	         -7.36160397	          2.30872942	          0.90916537	          0.00228825	         27.75730605	          4.43543674	         -2.03054668	        -15.93670366	         -2.70250420	          6.52231335	        -12.02082923	        -16.81490760	          3.19327619	        -10.99679284	         -8.47817455	         10.25126770	         -1.86505588	         10.17025835	         -1.11996511	         21.13166366	         -0.79445530	         -1.31323005	          2.76367422	         -9.04682330	        -13.52339771	         12.36015208	          4.27386727	        -13.52440045	         18.86139210	         12.07448831	         40.54011907	         86.51662706	         86.51662706	          0.39916053	          0.41052132	          0.44486764	          0.25162959	          0.18138770	          0.27690224	          0.10505552	          0.07819265	          0.07377342	          0.05759366	          0.05000038	          0.06402626	          0.13610653	          0.19389577	          0.21036027	          0.17714282	          0.05000030	          0.05316770	          0.09884155	          0.26944157	          0.22476196	          0.19760008	          0.05000017	          0.05000014	          0.31762939	          0.12453785	          0.22208681	          0.05000008	          0.16031649	          0.16826765	          0.14228221	          0.05000004	          0.05000009	          0.05000001	          0.05000002	          0.05000031	          0.05000023	          0.65087514	          0.30252586	          0.16496078	          0.51961473	          0.57030261	          0.34293574	          0.09194559	          0.09879742	          0.05346461	          0.29250580	          0.05000153	          0.05000008	          0.24341110	          0.09786371	          0.05883454	          0.05000179	          0.05000020	          0.05000021	          0.05000014	          0.05738633	          0.14881695	          0.12111019	          0.05000816	          0.05000482	          0.05105138	          0.17351752	          0.06003612	          0.05000068	          0.05000187	          0.05000111	          0.05000072	          0.22497729	          0.50506427	          0.05000015	          0.05000059	          0.05000016	          0.16940867	          0.13897227	          0.12892669	          0.12452501	          0.13762120	          0.19216233	          0.21201903	          0.15878226	          0.13478212	          0.17281682	          0.14890715	          0.12184700	          0.10319412	          0.06336581	          0.19185383	          0.11094181	          0.09289373	          0.05000002	          0.05000004	
